<svg xmlns="http://www.w3.org/2000/svg" viewBox="0 0 1130 370" width="1130" height="370" role="img" aria-label="AbsRel versus roll setting from Table 2: existing models degrade as roll increases, ID-Constraint stays nearly flat" font-family="-apple-system,BlinkMacSystemFont,'Segoe UI',Helvetica,Arial,sans-serif"><rect x="0.5" y="0.5" width="1129" height="369" rx="10" fill="#ffffff" stroke="#ddd5c5"/><g transform="translate(24,10)"><text x="14" y="24" font-size="15" font-weight="600" fill="#17140f">Existing MDE models</text><line x1="44" x2="340" y1="278.0" y2="278.0" stroke="#ddd5c5"/><text x="36" y="282.0" text-anchor="end" font-size="12" fill="#5d564a">0.08</text><line x1="44" x2="340" y1="200.7" y2="200.7" stroke="#ddd5c5"/><text x="36" y="204.7" text-anchor="end" font-size="12" fill="#5d564a">0.12</text><line x1="44" x2="340" y1="123.3" y2="123.3" stroke="#ddd5c5"/><text x="36" y="127.3" text-anchor="end" font-size="12" fill="#5d564a">0.16</text><line x1="44" x2="340" y1="46.0" y2="46.0" stroke="#ddd5c5"/><text x="36" y="50.0" text-anchor="end" font-size="12" fill="#5d564a">0.20</text><text x="66.0" y="298" text-anchor="middle" font-size="12" fill="#5d564a">Horizontal</text><text x="66.0" y="313" text-anchor="middle" font-size="11" fill="#5d564a">0°</text><text x="153.3" y="298" text-anchor="middle" font-size="12" fill="#5d564a">Shaking</text><text x="153.3" y="313" text-anchor="middle" font-size="11" fill="#5d564a">[0°, 15°]</text><text x="240.7" y="298" text-anchor="middle" font-size="12" fill="#5d564a">Rolling</text><text x="240.7" y="313" text-anchor="middle" font-size="11" fill="#5d564a">[0°, 45°]</text><text x="328.0" y="298" text-anchor="middle" font-size="12" fill="#5d564a">Tipping</text><text x="328.0" y="313" text-anchor="middle" font-size="11" fill="#5d564a">[0°, 90°]</text><polyline fill="none" stroke="#2a78d6" stroke-width="2" stroke-linejoin="round" points="66.0,181.3 153.3,150.4 240.7,102.1 328.0,46.0"/><polyline fill="none" stroke="#eb6834" stroke-width="2" stroke-linejoin="round" points="66.0,181.3 153.3,156.2 240.7,115.6 328.0,75.0"/><polyline fill="none" stroke="#1baf7a" stroke-width="2" stroke-linejoin="round" points="66.0,241.3 153.3,214.2 240.7,192.9 328.0,179.4"/><polyline fill="none" stroke="#eda100" stroke-width="2" stroke-linejoin="round" points="66.0,247.1 153.3,221.9 240.7,202.6 328.0,187.1"/><circle cx="66.0" cy="181.3" r="5" fill="#2a78d6" stroke="#fff" stroke-width="2"/><circle cx="153.3" cy="150.4" r="5" fill="#2a78d6" stroke="#fff" stroke-width="2"/><circle cx="240.7" cy="102.1" r="5" fill="#2a78d6" stroke="#fff" stroke-width="2"/><circle cx="328.0" cy="46.0" r="5" fill="#2a78d6" stroke="#fff" stroke-width="2"/><text x="340.0" y="50.0" font-size="12" fill="#17140f">Marigold <tspan font-weight="700">0.200</tspan></text><circle cx="66.0" cy="181.3" r="5" fill="#eb6834" stroke="#fff" stroke-width="2"/><circle cx="153.3" cy="156.2" r="5" fill="#eb6834" stroke="#fff" stroke-width="2"/><circle cx="240.7" cy="115.6" r="5" fill="#eb6834" stroke="#fff" stroke-width="2"/><circle cx="328.0" cy="75.0" r="5" fill="#eb6834" stroke="#fff" stroke-width="2"/><text x="340.0" y="79.0" font-size="12" fill="#17140f">GenPercept <tspan font-weight="700">0.185</tspan></text><circle cx="66.0" cy="241.3" r="5" fill="#1baf7a" stroke="#fff" stroke-width="2"/><circle cx="153.3" cy="214.2" r="5" fill="#1baf7a" stroke="#fff" stroke-width="2"/><circle cx="240.7" cy="192.9" r="5" fill="#1baf7a" stroke="#fff" stroke-width="2"/><circle cx="328.0" cy="179.4" r="5" fill="#1baf7a" stroke="#fff" stroke-width="2"/><text x="340.0" y="183.4" font-size="12" fill="#17140f">DistillAD <tspan font-weight="700">0.131</tspan></text><circle cx="66.0" cy="247.1" r="5" fill="#eda100" stroke="#fff" stroke-width="2"/><circle cx="153.3" cy="221.9" r="5" fill="#eda100" stroke="#fff" stroke-width="2"/><circle cx="240.7" cy="202.6" r="5" fill="#eda100" stroke="#fff" stroke-width="2"/><circle cx="328.0" cy="187.1" r="5" fill="#eda100" stroke="#fff" stroke-width="2"/><text x="340.0" y="201.4" font-size="12" fill="#17140f">DAv2 <tspan font-weight="700">0.127</tspan></text></g><g transform="translate(574,10)"><text x="14" y="24" font-size="15" font-weight="600" fill="#17140f">Re-implemented baseline and the three remedies</text><line x1="44" x2="340" y1="278.0" y2="278.0" stroke="#ddd5c5"/><text x="36" y="282.0" text-anchor="end" font-size="12" fill="#5d564a">0.08</text><line x1="44" x2="340" y1="200.7" y2="200.7" stroke="#ddd5c5"/><text x="36" y="204.7" text-anchor="end" font-size="12" fill="#5d564a">0.12</text><line x1="44" x2="340" y1="123.3" y2="123.3" stroke="#ddd5c5"/><text x="36" y="127.3" text-anchor="end" font-size="12" fill="#5d564a">0.16</text><line x1="44" x2="340" y1="46.0" y2="46.0" stroke="#ddd5c5"/><text x="36" y="50.0" text-anchor="end" font-size="12" fill="#5d564a">0.20</text><text x="66.0" y="298" text-anchor="middle" font-size="12" fill="#5d564a">Horizontal</text><text x="66.0" y="313" text-anchor="middle" font-size="11" fill="#5d564a">0°</text><text x="153.3" y="298" text-anchor="middle" font-size="12" fill="#5d564a">Shaking</text><text x="153.3" y="313" text-anchor="middle" font-size="11" fill="#5d564a">[0°, 15°]</text><text x="240.7" y="298" text-anchor="middle" font-size="12" fill="#5d564a">Rolling</text><text x="240.7" y="313" text-anchor="middle" font-size="11" fill="#5d564a">[0°, 45°]</text><text x="328.0" y="298" text-anchor="middle" font-size="12" fill="#5d564a">Tipping</text><text x="328.0" y="313" text-anchor="middle" font-size="11" fill="#5d564a">[0°, 90°]</text><polyline fill="none" stroke="#2a78d6" stroke-width="2" stroke-linejoin="round" points="66.0,239.3 153.3,214.2 240.7,191.0 328.0,171.7"/><polyline fill="none" stroke="#eb6834" stroke-width="2" stroke-linejoin="round" points="66.0,231.6 153.3,218.1 240.7,212.3 328.0,202.6"/><polyline fill="none" stroke="#1baf7a" stroke-width="2" stroke-linejoin="round" points="66.0,239.3 153.3,223.9 240.7,220.0 328.0,216.1"/><polyline fill="none" stroke="#eda100" stroke-width="2" stroke-linejoin="round" points="66.0,241.3 153.3,233.5 240.7,231.6 328.0,227.7"/><circle cx="66.0" cy="239.3" r="5" fill="#2a78d6" stroke="#fff" stroke-width="2"/><circle cx="153.3" cy="214.2" r="5" fill="#2a78d6" stroke="#fff" stroke-width="2"/><circle cx="240.7" cy="191.0" r="5" fill="#2a78d6" stroke="#fff" stroke-width="2"/><circle cx="328.0" cy="171.7" r="5" fill="#2a78d6" stroke="#fff" stroke-width="2"/><text x="340.0" y="175.7" font-size="12" fill="#17140f">Baseline <tspan font-weight="700">0.135</tspan></text><circle cx="66.0" cy="231.6" r="5" fill="#eb6834" stroke="#fff" stroke-width="2"/><circle cx="153.3" cy="218.1" r="5" fill="#eb6834" stroke="#fff" stroke-width="2"/><circle cx="240.7" cy="212.3" r="5" fill="#eb6834" stroke="#fff" stroke-width="2"/><circle cx="328.0" cy="202.6" r="5" fill="#eb6834" stroke="#fff" stroke-width="2"/><text x="340.0" y="206.6" font-size="12" fill="#17140f">Re-balanced Aug <tspan font-weight="700">0.119</tspan></text><circle cx="66.0" cy="239.3" r="5" fill="#1baf7a" stroke="#fff" stroke-width="2"/><circle cx="153.3" cy="223.9" r="5" fill="#1baf7a" stroke="#fff" stroke-width="2"/><circle cx="240.7" cy="220.0" r="5" fill="#1baf7a" stroke="#fff" stroke-width="2"/><circle cx="328.0" cy="216.1" r="5" fill="#1baf7a" stroke="#fff" stroke-width="2"/><text x="340.0" y="224.6" font-size="12" fill="#17140f">Horizon Leveling <tspan font-weight="700">0.112</tspan></text><circle cx="66.0" cy="241.3" r="5" fill="#eda100" stroke="#fff" stroke-width="2"/><circle cx="153.3" cy="233.5" r="5" fill="#eda100" stroke="#fff" stroke-width="2"/><circle cx="240.7" cy="231.6" r="5" fill="#eda100" stroke="#fff" stroke-width="2"/><circle cx="328.0" cy="227.7" r="5" fill="#eda100" stroke="#fff" stroke-width="2"/><text x="340.0" y="242.6" font-size="12" fill="#17140f">ID-Constraint <tspan font-weight="700">0.106</tspan></text></g><text x="38" y="352" font-size="12" fill="#5d564a">AbsRel (lower is better) under the four roll settings, averaged across five benchmarks. Source: Table 2 of arXiv:2608.00678.</text></svg>